<mxfile host="app.diagrams.net" modified="2024-04-07T11:40:54.333Z" agent="Mozilla/5.0 (Windows NT 10.0; Win64; x64) AppleWebKit/537.36 (KHTML, like Gecko) Chrome/123.0.0.0 Safari/537.36" etag="5JS1feio6h1eimMLlhNC" version="24.2.2" type="github">
  <diagram name="第 1 页" id="51GR4-OFMTt2PiQBixg9">
    <mxGraphModel dx="1259" dy="655" grid="1" gridSize="10" guides="1" tooltips="1" connect="1" arrows="1" fold="1" page="1" pageScale="1" pageWidth="827" pageHeight="1169" math="0" shadow="0">
      <root>
        <mxCell id="0" />
        <mxCell id="1" parent="0" />
        <mxCell id="D0us4YBEkCv0PDZvwHhe-9" style="edgeStyle=orthogonalEdgeStyle;rounded=0;orthogonalLoop=1;jettySize=auto;html=1;exitX=1;exitY=0.5;exitDx=0;exitDy=0;exitPerimeter=0;entryX=0;entryY=0.5;entryDx=0;entryDy=0;" edge="1" parent="1" source="D0us4YBEkCv0PDZvwHhe-2" target="D0us4YBEkCv0PDZvwHhe-8">
          <mxGeometry relative="1" as="geometry" />
        </mxCell>
        <mxCell id="D0us4YBEkCv0PDZvwHhe-2" value="DB" style="shape=cylinder3;whiteSpace=wrap;html=1;boundedLbl=1;backgroundOutline=1;size=15;" vertex="1" parent="1">
          <mxGeometry x="120" y="230" width="60" height="80" as="geometry" />
        </mxCell>
        <mxCell id="D0us4YBEkCv0PDZvwHhe-3" value="send_message" style="rounded=0;whiteSpace=wrap;html=1;" vertex="1" parent="1">
          <mxGeometry x="90" y="450" width="120" height="60" as="geometry" />
        </mxCell>
        <mxCell id="D0us4YBEkCv0PDZvwHhe-5" style="edgeStyle=orthogonalEdgeStyle;rounded=0;orthogonalLoop=1;jettySize=auto;html=1;exitX=0.5;exitY=0;exitDx=0;exitDy=0;entryX=0.5;entryY=1;entryDx=0;entryDy=0;" edge="1" parent="1" source="D0us4YBEkCv0PDZvwHhe-4" target="D0us4YBEkCv0PDZvwHhe-3">
          <mxGeometry relative="1" as="geometry" />
        </mxCell>
        <mxCell id="D0us4YBEkCv0PDZvwHhe-4" value="task" style="ellipse;whiteSpace=wrap;html=1;" vertex="1" parent="1">
          <mxGeometry x="90" y="550" width="120" height="80" as="geometry" />
        </mxCell>
        <mxCell id="D0us4YBEkCv0PDZvwHhe-6" style="edgeStyle=orthogonalEdgeStyle;rounded=0;orthogonalLoop=1;jettySize=auto;html=1;exitX=0.5;exitY=0;exitDx=0;exitDy=0;entryX=0.5;entryY=1;entryDx=0;entryDy=0;entryPerimeter=0;" edge="1" parent="1" source="D0us4YBEkCv0PDZvwHhe-3" target="D0us4YBEkCv0PDZvwHhe-2">
          <mxGeometry relative="1" as="geometry" />
        </mxCell>
        <mxCell id="D0us4YBEkCv0PDZvwHhe-11" style="edgeStyle=orthogonalEdgeStyle;rounded=0;orthogonalLoop=1;jettySize=auto;html=1;exitX=1;exitY=0.5;exitDx=0;exitDy=0;" edge="1" parent="1" source="D0us4YBEkCv0PDZvwHhe-8" target="D0us4YBEkCv0PDZvwHhe-10">
          <mxGeometry relative="1" as="geometry" />
        </mxCell>
        <mxCell id="D0us4YBEkCv0PDZvwHhe-8" value="process message&lt;br&gt;(Listen for message)" style="rounded=0;whiteSpace=wrap;html=1;" vertex="1" parent="1">
          <mxGeometry x="294" y="210" width="120" height="60" as="geometry" />
        </mxCell>
        <mxCell id="D0us4YBEkCv0PDZvwHhe-14" style="edgeStyle=orthogonalEdgeStyle;rounded=0;orthogonalLoop=1;jettySize=auto;html=1;exitX=1;exitY=0.5;exitDx=0;exitDy=0;entryX=0;entryY=0.5;entryDx=0;entryDy=0;" edge="1" parent="1" source="D0us4YBEkCv0PDZvwHhe-10" target="D0us4YBEkCv0PDZvwHhe-12">
          <mxGeometry relative="1" as="geometry" />
        </mxCell>
        <mxCell id="D0us4YBEkCv0PDZvwHhe-15" style="edgeStyle=orthogonalEdgeStyle;rounded=0;orthogonalLoop=1;jettySize=auto;html=1;exitX=1;exitY=0.5;exitDx=0;exitDy=0;" edge="1" parent="1" source="D0us4YBEkCv0PDZvwHhe-10" target="D0us4YBEkCv0PDZvwHhe-13">
          <mxGeometry relative="1" as="geometry" />
        </mxCell>
        <mxCell id="D0us4YBEkCv0PDZvwHhe-10" value="create flow&lt;br&gt;(Main Process)" style="rounded=0;whiteSpace=wrap;html=1;" vertex="1" parent="1">
          <mxGeometry x="460" y="210" width="120" height="60" as="geometry" />
        </mxCell>
        <mxCell id="D0us4YBEkCv0PDZvwHhe-12" value="Task Process" style="rounded=0;whiteSpace=wrap;html=1;" vertex="1" parent="1">
          <mxGeometry x="630" y="140" width="120" height="60" as="geometry" />
        </mxCell>
        <mxCell id="D0us4YBEkCv0PDZvwHhe-25" style="edgeStyle=orthogonalEdgeStyle;rounded=0;orthogonalLoop=1;jettySize=auto;html=1;exitX=1;exitY=0.5;exitDx=0;exitDy=0;entryX=1;entryY=0.5;entryDx=0;entryDy=0;" edge="1" parent="1" source="D0us4YBEkCv0PDZvwHhe-13" target="D0us4YBEkCv0PDZvwHhe-12">
          <mxGeometry relative="1" as="geometry" />
        </mxCell>
        <mxCell id="D0us4YBEkCv0PDZvwHhe-26" value="stop task" style="edgeLabel;html=1;align=center;verticalAlign=middle;resizable=0;points=[];" vertex="1" connectable="0" parent="D0us4YBEkCv0PDZvwHhe-25">
          <mxGeometry x="-0.008" relative="1" as="geometry">
            <mxPoint as="offset" />
          </mxGeometry>
        </mxCell>
        <mxCell id="D0us4YBEkCv0PDZvwHhe-31" style="edgeStyle=orthogonalEdgeStyle;rounded=0;orthogonalLoop=1;jettySize=auto;html=1;exitX=0.75;exitY=1;exitDx=0;exitDy=0;entryX=1;entryY=0;entryDx=0;entryDy=52.5;entryPerimeter=0;" edge="1" parent="1" source="D0us4YBEkCv0PDZvwHhe-13" target="D0us4YBEkCv0PDZvwHhe-2">
          <mxGeometry relative="1" as="geometry">
            <mxPoint x="190" y="400" as="targetPoint" />
            <Array as="points">
              <mxPoint x="720" y="360" />
              <mxPoint x="191" y="360" />
              <mxPoint x="191" y="283" />
            </Array>
          </mxGeometry>
        </mxCell>
        <mxCell id="D0us4YBEkCv0PDZvwHhe-32" value="update status" style="edgeLabel;html=1;align=center;verticalAlign=middle;resizable=0;points=[];" vertex="1" connectable="0" parent="D0us4YBEkCv0PDZvwHhe-31">
          <mxGeometry x="0.1802" y="-4" relative="1" as="geometry">
            <mxPoint as="offset" />
          </mxGeometry>
        </mxCell>
        <mxCell id="D0us4YBEkCv0PDZvwHhe-13" value="Monitor Process" style="rounded=0;whiteSpace=wrap;html=1;" vertex="1" parent="1">
          <mxGeometry x="630" y="260" width="120" height="60" as="geometry" />
        </mxCell>
        <mxCell id="D0us4YBEkCv0PDZvwHhe-23" style="edgeStyle=orthogonalEdgeStyle;rounded=0;orthogonalLoop=1;jettySize=auto;html=1;exitX=0.855;exitY=1;exitDx=0;exitDy=-4.35;exitPerimeter=0;entryX=0.575;entryY=0.988;entryDx=0;entryDy=0;entryPerimeter=0;" edge="1" parent="1" source="D0us4YBEkCv0PDZvwHhe-2" target="D0us4YBEkCv0PDZvwHhe-13">
          <mxGeometry relative="1" as="geometry" />
        </mxCell>
        <mxCell id="D0us4YBEkCv0PDZvwHhe-24" value="events" style="text;html=1;align=center;verticalAlign=middle;resizable=0;points=[];autosize=1;strokeColor=none;fillColor=none;" vertex="1" parent="1">
          <mxGeometry x="430" y="318" width="60" height="30" as="geometry" />
        </mxCell>
        <mxCell id="D0us4YBEkCv0PDZvwHhe-27" style="edgeStyle=orthogonalEdgeStyle;rounded=0;orthogonalLoop=1;jettySize=auto;html=1;exitX=0.5;exitY=0;exitDx=0;exitDy=0;entryX=0.5;entryY=0;entryDx=0;entryDy=0;entryPerimeter=0;" edge="1" parent="1" source="D0us4YBEkCv0PDZvwHhe-12" target="D0us4YBEkCv0PDZvwHhe-2">
          <mxGeometry relative="1" as="geometry" />
        </mxCell>
        <mxCell id="D0us4YBEkCv0PDZvwHhe-30" value="save result" style="edgeLabel;html=1;align=center;verticalAlign=middle;resizable=0;points=[];" vertex="1" connectable="0" parent="D0us4YBEkCv0PDZvwHhe-27">
          <mxGeometry x="-0.197" relative="1" as="geometry">
            <mxPoint as="offset" />
          </mxGeometry>
        </mxCell>
        <mxCell id="D0us4YBEkCv0PDZvwHhe-36" style="edgeStyle=orthogonalEdgeStyle;rounded=0;orthogonalLoop=1;jettySize=auto;html=1;exitX=1;exitY=0.5;exitDx=0;exitDy=0;entryX=0;entryY=0.5;entryDx=0;entryDy=0;" edge="1" parent="1" source="D0us4YBEkCv0PDZvwHhe-33" target="D0us4YBEkCv0PDZvwHhe-35">
          <mxGeometry relative="1" as="geometry" />
        </mxCell>
        <mxCell id="D0us4YBEkCv0PDZvwHhe-33" value="backend api" style="rounded=0;whiteSpace=wrap;html=1;" vertex="1" parent="1">
          <mxGeometry x="354" y="500" width="120" height="60" as="geometry" />
        </mxCell>
        <mxCell id="D0us4YBEkCv0PDZvwHhe-35" value="Web UI" style="rounded=0;whiteSpace=wrap;html=1;" vertex="1" parent="1">
          <mxGeometry x="550" y="500" width="120" height="60" as="geometry" />
        </mxCell>
        <mxCell id="D0us4YBEkCv0PDZvwHhe-39" style="edgeStyle=orthogonalEdgeStyle;rounded=0;orthogonalLoop=1;jettySize=auto;html=1;exitX=0;exitY=0.5;exitDx=0;exitDy=0;" edge="1" parent="1" source="D0us4YBEkCv0PDZvwHhe-37" target="D0us4YBEkCv0PDZvwHhe-35">
          <mxGeometry relative="1" as="geometry" />
        </mxCell>
        <mxCell id="D0us4YBEkCv0PDZvwHhe-37" value="可视化控制" style="text;html=1;align=center;verticalAlign=middle;whiteSpace=wrap;rounded=0;fillColor=#fff2cc;strokeColor=#d6b656;" vertex="1" parent="1">
          <mxGeometry x="730" y="515" width="120" height="30" as="geometry" />
        </mxCell>
        <mxCell id="D0us4YBEkCv0PDZvwHhe-38" style="edgeStyle=orthogonalEdgeStyle;rounded=0;orthogonalLoop=1;jettySize=auto;html=1;exitX=0.5;exitY=0;exitDx=0;exitDy=0;entryX=0;entryY=0.5;entryDx=0;entryDy=0;entryPerimeter=0;" edge="1" parent="1" source="D0us4YBEkCv0PDZvwHhe-33" target="D0us4YBEkCv0PDZvwHhe-2">
          <mxGeometry relative="1" as="geometry" />
        </mxCell>
      </root>
    </mxGraphModel>
  </diagram>
</mxfile>
